<?xml version="1.0" encoding="UTF-8" standalone="no"?>
<!DOCTYPE svg PUBLIC "-//W3C//DTD SVG 1.1//EN"
 "http://www.w3.org/Graphics/SVG/1.1/DTD/svg11.dtd">
<!-- Generated by graphviz version 2.38.0 (20140413.2041)
 -->
<!-- Title: G Pages: 1 -->
<svg width="455pt" height="218pt"
 viewBox="0.00 0.00 455.00 218.00" xmlns="http://www.w3.org/2000/svg" xmlns:xlink="http://www.w3.org/1999/xlink">
<g id="graph0" class="graph" transform="scale(1 1) rotate(0) translate(4 214)">
<title>G</title>
<polygon fill="white" stroke="none" points="-4,4 -4,-214 451,-214 451,4 -4,4"/>
<!-- Elemwise{mul,no_inplace} -->
<g id="node1" class="node"><title>Elemwise{mul,no_inplace}</title>
<ellipse fill="#ffaabb" stroke="black" cx="188" cy="-105" rx="111.581" ry="18"/>
<text text-anchor="middle" x="188" y="-101.3" font-family="Times,serif" font-size="14.00">Elemwise{mul,no_inplace}</text>
</g>
<!-- TensorType(float64, scalar) id=2 -->
<g id="node4" class="node"><title>TensorType(float64, scalar) id=2</title>
<polygon fill="blue" stroke="black" points="288.5,-36 87.5,-36 87.5,-0 288.5,-0 288.5,-36"/>
<text text-anchor="middle" x="188" y="-14.3" font-family="Times,serif" font-size="14.00">TensorType(float64, scalar) id=2</text>
</g>
<!-- Elemwise{mul,no_inplace}&#45;&gt;TensorType(float64, scalar) id=2 -->
<g id="edge3" class="edge"><title>Elemwise{mul,no_inplace}&#45;&gt;TensorType(float64, scalar) id=2</title>
<path fill="none" stroke="black" d="M188,-86.799C188,-75.1626 188,-59.5479 188,-46.2368"/>
<polygon fill="black" stroke="black" points="191.5,-46.1754 188,-36.1754 184.5,-46.1755 191.5,-46.1754"/>
<text text-anchor="middle" x="266" y="-57.8" font-family="Times,serif" font-size="14.00">TensorType(float64, scalar)</text>
</g>
<!-- TensorType(float64, scalar) -->
<g id="node2" class="node"><title>TensorType(float64, scalar)</title>
<polygon fill="green" stroke="black" points="172,-210 0,-210 0,-174 172,-174 172,-210"/>
<text text-anchor="middle" x="86" y="-188.3" font-family="Times,serif" font-size="14.00">TensorType(float64, scalar)</text>
</g>
<!-- TensorType(float64, scalar)&#45;&gt;Elemwise{mul,no_inplace} -->
<g id="edge1" class="edge"><title>TensorType(float64, scalar)&#45;&gt;Elemwise{mul,no_inplace}</title>
<path fill="none" stroke="black" d="M87.7842,-173.862C89.7072,-163.24 93.702,-149.961 102,-141 107.825,-134.709 114.942,-129.522 122.563,-125.25"/>
<polygon fill="black" stroke="black" points="124.34,-128.274 131.693,-120.646 121.188,-122.024 124.34,-128.274"/>
<text text-anchor="middle" x="185.5" y="-144.8" font-family="Times,serif" font-size="14.00">0 TensorType(float64, scalar)</text>
</g>
<!-- TensorType(float64, scalar) id=1 -->
<g id="node3" class="node"><title>TensorType(float64, scalar) id=1</title>
<polygon fill="green" stroke="black" points="391.5,-210 190.5,-210 190.5,-174 391.5,-174 391.5,-210"/>
<text text-anchor="middle" x="291" y="-188.3" font-family="Times,serif" font-size="14.00">TensorType(float64, scalar) id=1</text>
</g>
<!-- TensorType(float64, scalar) id=1&#45;&gt;Elemwise{mul,no_inplace} -->
<g id="edge2" class="edge"><title>TensorType(float64, scalar) id=1&#45;&gt;Elemwise{mul,no_inplace}</title>
<path fill="none" stroke="black" d="M286.916,-173.859C283.621,-163.236 278.016,-149.956 269,-141 262.985,-135.025 255.785,-129.998 248.194,-125.787"/>
<polygon fill="black" stroke="black" points="249.653,-122.603 239.15,-121.212 246.493,-128.85 249.653,-122.603"/>
<text text-anchor="middle" x="363.5" y="-144.8" font-family="Times,serif" font-size="14.00">1 TensorType(float64, scalar)</text>
</g>
</g>
</svg>
